<svg height="19" xmlns="http://www.w3.org/2000/svg"
     viewBox="0 0 16 16">
    <defs/>
    <g>
        <path
                d="M12.37 8.5c-.02-2.02 1.65-3 1.73-3.04a3.74 3.74 0 00-2.93-1.6c-1.25-.12-2.43.74-3.06.74-.63 0-1.61-.71-2.64-.7a3.91 3.91 0 00-3.31 2.01C.74 8.36 1.79 12 3.17 13.97c.67.97 1.47 2.07 2.53 2.03 1.01-.04 1.4-.66 2.62-.66 1.22 0 1.57.66 2.64.64 1.09-.02 1.78-1 2.45-1.97.77-1.12 1.09-2.22 1.1-2.27-.02-.01-2.12-.82-2.14-3.24zM10.35 2.56c.56-.68.94-1.62.84-2.56-.8.03-1.79.54-2.36 1.21-.52.6-.97 1.56-.85 2.48.9.07 1.81-.46 2.37-1.13z"/>
    </g>
</svg>