<svg height="20" xmlns="http://www.w3.org/2000/svg"
     viewBox="0 0 200.78 66.66">
    <defs/>
    <path
            d="M200.65 15.87C197.92.19 150.82-4.7 95.45 4.94 72.19 9 51.19 14.97 34.84 21.7c2.51.06 4.37.63 5.5 1.76a4.9 4.9 0 011.34 3.62v1.55h-5.43v-1.37c0-1.14-.69-1.85-1.9-1.85-1.03 0-1.65.46-1.86 1.37a2.63 2.63 0 00.02 1.08c.59 2.37 8.65 3.85 9.53 8.23.11.57.27 1.77.02 3.5-.5 3.54-3.6 4.9-7.56 4.9-5.52 0-7.76-2.61-7.76-6.22v-1.7h5.82v2.12c0 1.2.87 1.85 2.05 1.85 1.12 0 1.78-.45 2-1.37a2.7 2.7 0 00-.04-1.53c-1.07-2.7-8.6-3.96-9.53-8.33a7.32 7.32 0 01-.05-2.87 5.6 5.6 0 01.48-1.51C9.33 33.4-1.28 42.73.12 50.79c2.74 15.68 49.84 20.57 105.21 10.92 24.34-4.23 46.23-10.58 62.88-17.68-.24 0-.47.03-.72.03-3.8 0-7.18-1.42-7.53-5.29-.06-.7-.07-1-.07-1.4v-8.9c0-.4.05-1.06.09-1.41.45-3.75 3.4-5.3 7.51-5.3 3.17 0 7.07.92 7.5 5.3.05.55.05 1.14.05 1.33v.84h-5.49v-1.25c0-.03 0-.5-.07-.8-.09-.44-.47-1.48-2.03-1.48-1.54 0-1.94 1.04-2.04 1.49-.06.24-.09.6-.09.99v9.67c0 .34.02.6.05.8.03.15.3 1.48 2.1 1.48 1.78 0 2.06-1.33 2.08-1.48.05-.27.06-.58.05-.8v-3h-2.15v-3.23h7.63v5.75c0 .4-.01.68-.08 1.4a5.4 5.4 0 01-.91 2.61c17.66-8.39 27.95-17.57 26.56-25.51zM57.06 43.65L54.3 24.78h-.1l-2.85 18.87h-5.86l3.94-21.31h9.55l3.92 21.31h-5.83zm28.17 0l-.13-18.5H85l-3.44 18.5h-5.5l-3.42-18.5h-.1l-.13 18.5h-5.44l.47-21.31h8.76l2.55 15.83h.12l2.56-15.83h8.75l.47 21.31h-5.42zm25.64-4.13c-.59 4.13-4.63 4.85-7.5 4.85-4.74 0-7.68-2.03-7.68-6.16v-1.68h5.76v2.1c0 1.14.8 1.83 2.05 1.83 1.1 0 1.75-.44 1.98-1.35.1-.43.14-1.05-.04-1.51-1.06-2.66-8.53-3.95-9.44-8.26-.2-.97-.22-1.8-.05-2.84.63-3.9 4.37-4.71 7.38-4.71 2.7 0 4.66.58 5.83 1.76a4.86 4.86 0 011.33 3.58v1.54h-5.38v-1.36c0-1.16-.72-1.83-1.88-1.83-1.03 0-1.65.46-1.86 1.36a2.59 2.59 0 00.03 1.07c.58 2.36 8.57 3.8 9.44 8.15.12.55.27 1.74.03 3.46zm19.92-1.94c0 .4-.03 1.2-.06 1.4-.32 3.52-2.84 5.3-7.44 5.3-4.63 0-7.14-1.78-7.47-5.3a16.96 16.96 0 01-.05-1.4V22.34h5.5v15.74c0 .35.01.61.05.8.06.34.41 1.48 1.97 1.48 1.54 0 1.9-1.14 1.96-1.48.04-.19.05-.46.05-.8V22.33h5.49V37.6zm23.7 5.86h-7.66l-5.13-16.89h-.09l.28 16.89h-5.33v-21.1h7.98l4.75 16.22h.1l-.27-16.22h5.37v21.1z"/>
</svg>